<mxfile host="Electron" agent="Mozilla/5.0 (Windows NT 10.0; Win64; x64) AppleWebKit/537.36 (KHTML, like Gecko) draw.io/24.7.8 Chrome/128.0.6613.36 Electron/32.0.1 Safari/537.36" version="24.7.8">
  <diagram name="Page-1" id="q0BTHxkNQCn6xUIbYulX">
    <mxGraphModel dx="794" dy="1681" grid="1" gridSize="10" guides="1" tooltips="1" connect="1" arrows="1" fold="1" page="1" pageScale="1" pageWidth="850" pageHeight="1100" math="0" shadow="0">
      <root>
        <mxCell id="0" />
        <mxCell id="1" parent="0" />
        <mxCell id="E4jnWT5--t1eKSC2rPL1-2" value="" style="rounded=0;whiteSpace=wrap;html=1;rotation=90;" parent="1" vertex="1">
          <mxGeometry x="98.12" y="199.62" width="683.75" height="260" as="geometry" />
        </mxCell>
        <mxCell id="E4jnWT5--t1eKSC2rPL1-3" value="Login" style="ellipse;whiteSpace=wrap;html=1;" parent="1" vertex="1">
          <mxGeometry x="350" y="30" width="180" height="80" as="geometry" />
        </mxCell>
        <mxCell id="E4jnWT5--t1eKSC2rPL1-4" value="Add Book" style="ellipse;whiteSpace=wrap;html=1;" parent="1" vertex="1">
          <mxGeometry x="350" y="120" width="180" height="80" as="geometry" />
        </mxCell>
        <mxCell id="E4jnWT5--t1eKSC2rPL1-5" value="Book List" style="ellipse;whiteSpace=wrap;html=1;" parent="1" vertex="1">
          <mxGeometry x="350" y="210" width="180" height="80" as="geometry" />
        </mxCell>
        <mxCell id="E4jnWT5--t1eKSC2rPL1-6" value="Sell Books" style="ellipse;whiteSpace=wrap;html=1;" parent="1" vertex="1">
          <mxGeometry x="350" y="299" width="180" height="80" as="geometry" />
        </mxCell>
        <mxCell id="E4jnWT5--t1eKSC2rPL1-7" value="Display Selling" style="ellipse;whiteSpace=wrap;html=1;" parent="1" vertex="1">
          <mxGeometry x="350" y="390" width="180" height="80" as="geometry" />
        </mxCell>
        <mxCell id="E4jnWT5--t1eKSC2rPL1-8" value="Change Password" style="ellipse;whiteSpace=wrap;html=1;" parent="1" vertex="1">
          <mxGeometry x="350" y="480" width="180" height="80" as="geometry" />
        </mxCell>
        <mxCell id="E4jnWT5--t1eKSC2rPL1-9" value="Logout" style="ellipse;whiteSpace=wrap;html=1;" parent="1" vertex="1">
          <mxGeometry x="350" y="570" width="180" height="80" as="geometry" />
        </mxCell>
        <mxCell id="E4jnWT5--t1eKSC2rPL1-13" value="Admin" style="shape=umlActor;verticalLabelPosition=bottom;verticalAlign=top;html=1;outlineConnect=0;" parent="1" vertex="1">
          <mxGeometry x="165" y="309" width="30" height="60" as="geometry" />
        </mxCell>
        <mxCell id="E4jnWT5--t1eKSC2rPL1-20" value="" style="endArrow=classic;html=1;rounded=0;entryX=0;entryY=0.5;entryDx=0;entryDy=0;exitX=1;exitY=0.3333333333333333;exitDx=0;exitDy=0;exitPerimeter=0;" parent="1" source="E4jnWT5--t1eKSC2rPL1-13" target="E4jnWT5--t1eKSC2rPL1-5" edge="1">
          <mxGeometry width="50" height="50" relative="1" as="geometry">
            <mxPoint x="150" y="330" as="sourcePoint" />
            <mxPoint x="200" y="280" as="targetPoint" />
          </mxGeometry>
        </mxCell>
        <mxCell id="E4jnWT5--t1eKSC2rPL1-21" value="" style="endArrow=classic;html=1;rounded=0;entryX=0;entryY=0.5;entryDx=0;entryDy=0;exitX=1;exitY=0.3333333333333333;exitDx=0;exitDy=0;exitPerimeter=0;" parent="1" source="E4jnWT5--t1eKSC2rPL1-13" target="E4jnWT5--t1eKSC2rPL1-6" edge="1">
          <mxGeometry width="50" height="50" relative="1" as="geometry">
            <mxPoint x="156" y="339" as="sourcePoint" />
            <mxPoint x="360" y="260" as="targetPoint" />
          </mxGeometry>
        </mxCell>
        <mxCell id="E4jnWT5--t1eKSC2rPL1-22" value="" style="endArrow=classic;html=1;rounded=0;entryX=0;entryY=0.5;entryDx=0;entryDy=0;exitX=1;exitY=0.3333333333333333;exitDx=0;exitDy=0;exitPerimeter=0;" parent="1" source="E4jnWT5--t1eKSC2rPL1-13" target="E4jnWT5--t1eKSC2rPL1-7" edge="1">
          <mxGeometry width="50" height="50" relative="1" as="geometry">
            <mxPoint x="156" y="339" as="sourcePoint" />
            <mxPoint x="360" y="349" as="targetPoint" />
          </mxGeometry>
        </mxCell>
        <mxCell id="E4jnWT5--t1eKSC2rPL1-23" value="" style="endArrow=classic;html=1;rounded=0;entryX=0;entryY=0.5;entryDx=0;entryDy=0;exitX=1;exitY=0.3333333333333333;exitDx=0;exitDy=0;exitPerimeter=0;" parent="1" source="E4jnWT5--t1eKSC2rPL1-13" target="E4jnWT5--t1eKSC2rPL1-8" edge="1">
          <mxGeometry width="50" height="50" relative="1" as="geometry">
            <mxPoint x="156" y="339" as="sourcePoint" />
            <mxPoint x="360" y="440" as="targetPoint" />
          </mxGeometry>
        </mxCell>
        <mxCell id="E4jnWT5--t1eKSC2rPL1-24" value="" style="endArrow=classic;html=1;rounded=0;entryX=0.009;entryY=0.584;entryDx=0;entryDy=0;exitX=1;exitY=0.3333333333333333;exitDx=0;exitDy=0;exitPerimeter=0;entryPerimeter=0;" parent="1" source="E4jnWT5--t1eKSC2rPL1-13" target="E4jnWT5--t1eKSC2rPL1-9" edge="1">
          <mxGeometry width="50" height="50" relative="1" as="geometry">
            <mxPoint x="156" y="339" as="sourcePoint" />
            <mxPoint x="360" y="530" as="targetPoint" />
          </mxGeometry>
        </mxCell>
        <mxCell id="E4jnWT5--t1eKSC2rPL1-26" value="Book Store" style="text;html=1;align=center;verticalAlign=middle;whiteSpace=wrap;rounded=0;fontStyle=1" parent="1" vertex="1">
          <mxGeometry x="310" y="-10" width="260" height="30" as="geometry" />
        </mxCell>
        <mxCell id="E4jnWT5--t1eKSC2rPL1-27" value="" style="endArrow=classic;html=1;rounded=0;entryX=0;entryY=0.5;entryDx=0;entryDy=0;exitX=1;exitY=0.3333333333333333;exitDx=0;exitDy=0;exitPerimeter=0;" parent="1" source="E4jnWT5--t1eKSC2rPL1-13" target="E4jnWT5--t1eKSC2rPL1-4" edge="1">
          <mxGeometry width="50" height="50" relative="1" as="geometry">
            <mxPoint x="205" y="339" as="sourcePoint" />
            <mxPoint x="360" y="260" as="targetPoint" />
            <Array as="points" />
          </mxGeometry>
        </mxCell>
        <mxCell id="pxfUziAIQaRfoeKi7A63-1" value="" style="endArrow=classic;html=1;rounded=0;entryX=0;entryY=0.5;entryDx=0;entryDy=0;exitX=1;exitY=0.3333333333333333;exitDx=0;exitDy=0;exitPerimeter=0;" edge="1" parent="1" source="E4jnWT5--t1eKSC2rPL1-13" target="E4jnWT5--t1eKSC2rPL1-3">
          <mxGeometry width="50" height="50" relative="1" as="geometry">
            <mxPoint x="205" y="339" as="sourcePoint" />
            <mxPoint x="360" y="170" as="targetPoint" />
            <Array as="points" />
          </mxGeometry>
        </mxCell>
      </root>
    </mxGraphModel>
  </diagram>
</mxfile>
